<svg xmlns="http://www.w3.org/2000/svg" viewBox="0 0 100 125" fill="none" x="0px" y="0px"><path fill-rule="evenodd" clip-rule="evenodd" d="M42.5 10C40.8431 10 39.5 11.3431 39.5 13V79H60.5V13C60.5 11.3431 59.1569 10 57.5 10H42.5ZM18 23C16.3431 23 15 24.3431 15 26V79H36V26C36 24.3431 34.6569 23 33 23H18ZM8 82C6.34315 82 5 83.3431 5 85V87C5 88.6569 6.34315 90 8 90H92C93.6569 90 95 88.6569 95 87V85C95 83.3431 93.6569 82 92 82H8ZM64 38C64 36.3431 65.3431 35 67 35H82C83.6569 35 85 36.3431 85 38V79H64V38Z" fill="black"/><text x="0" y="115" fill="#000000" font-size="5px" font-weight="bold" font-family="'Helvetica Neue', Helvetica, Arial-Unicode, Arial, Sans-serif">Created by Dave Robson</text><text x="0" y="120" fill="#000000" font-size="5px" font-weight="bold" font-family="'Helvetica Neue', Helvetica, Arial-Unicode, Arial, Sans-serif">from the Noun Project</text></svg>